<svg width="208" height="208" viewBox="0 0 208 208" fill="none" xmlns="http://www.w3.org/2000/svg">
<rect width="208" height="208" fill="#ECFF00"/>
<path d="M88.558 92.642C91.9607 92.642 94.6287 93.6473 96.562 95.658C98.4953 97.6687 99.462 100.975 99.462 105.576H80.844L80.786 104.474H91.574C91.6513 102.579 91.574 100.839 91.342 99.254C91.11 97.63 90.7233 96.3347 90.182 95.368C89.6793 94.4013 89.0027 93.918 88.152 93.918C86.992 93.918 86.006 94.7493 85.194 96.412C84.382 98.0747 83.8793 100.897 83.686 104.88L83.918 105.286C83.8407 105.711 83.802 106.156 83.802 106.62C83.802 107.045 83.802 107.509 83.802 108.012C83.802 110.68 84.15 112.807 84.846 114.392C85.5807 115.977 86.4893 117.099 87.572 117.756C88.6547 118.413 89.776 118.742 90.936 118.742C91.5933 118.742 92.328 118.645 93.14 118.452C93.952 118.259 94.8027 117.853 95.692 117.234C96.5813 116.615 97.432 115.707 98.244 114.508L99.23 114.856C98.8047 116.364 98.07 117.853 97.026 119.322C96.0207 120.753 94.7253 121.951 93.14 122.918C91.5547 123.846 89.6407 124.31 87.398 124.31C84.846 124.31 82.5647 123.788 80.554 122.744C78.5433 121.661 76.9387 119.979 75.74 117.698C74.58 115.378 74 112.362 74 108.65C74 104.977 74.638 101.961 75.914 99.602C77.19 97.2433 78.93 95.5033 81.134 94.382C83.338 93.222 85.8127 92.642 88.558 92.642Z" fill="#0500FF"/>
<path d="M115.175 84V93.454H121.439V94.614H115.175V118.336C115.175 119.303 115.349 119.999 115.697 120.424C116.045 120.811 116.567 121.004 117.263 121.004C117.843 121.004 118.442 120.811 119.061 120.424C119.718 120.037 120.317 119.38 120.859 118.452L121.787 119.032C121.052 120.617 120.027 121.893 118.713 122.86C117.437 123.827 115.755 124.31 113.667 124.31C112.391 124.31 111.25 124.136 110.245 123.788C109.278 123.479 108.466 122.995 107.809 122.338C106.958 121.487 106.397 120.443 106.127 119.206C105.895 117.93 105.779 116.287 105.779 114.276V94.614H101.139V93.454H105.779V86.204C107.596 86.204 109.259 86.03 110.767 85.682C112.313 85.334 113.783 84.7733 115.175 84Z" fill="#0500FF"/>
<path d="M129.593 114.856C131.255 114.856 132.551 115.262 133.479 116.074C134.445 116.886 134.929 118.046 134.929 119.554C134.929 121.101 134.445 122.28 133.479 123.092C132.551 123.904 131.255 124.31 129.593 124.31C127.891 124.31 126.577 123.904 125.649 123.092C124.721 122.28 124.257 121.101 124.257 119.554C124.257 118.046 124.721 116.886 125.649 116.074C126.577 115.262 127.891 114.856 129.593 114.856Z" fill="#0500FF"/>
</svg>
